# Blender v3.0.0 OBJ File: 'mogusyo.blend'
# www.blender.org
mtllib mogusyo.mtl
o Cube
v 0.896042 7.425600 1.319092
v 1.280313 1.485583 0.949059
v -1.633355 6.706349 1.541551
v 1.135201 6.714363 1.580520
v -1.425481 7.650102 1.365784
v -1.287360 1.485583 0.845943
v -1.712333 3.540066 1.795718
v 1.663774 3.517490 1.841823
v 1.673290 5.857968 0.894758
v -1.515361 1.396068 -0.021664
v -1.694984 5.906631 1.721638
v 1.693360 2.046575 1.767910
v 1.012726 7.756077 0.705970
v -0.292336 7.974538 1.666476
v 1.130480 7.929778 0.014468
v 0.063004 1.396067 0.593848
v -1.669510 8.019297 -0.023769
v 1.657588 1.396067 0.021666
v -1.616440 2.049397 1.722711
v 1.379978 6.081515 1.430450
v -1.703658 4.723349 1.758678
v 2.321644 3.513258 0.030734
v -2.320502 3.544299 -0.032659
v -0.033165 3.528779 2.469426
v -0.272818 8.465622 -0.004696
v -0.170592 5.911817 2.367121
v -2.123295 3.625228 1.678118
v 0.071113 1.208210 0.000001
v 1.971152 5.869585 0.025948
v 2.339540 2.037220 0.030979
v -2.214949 2.041100 -0.031217
v 0.029931 2.039160 2.369859
v 1.686569 0.036631 1.977868
v 1.275567 0.036631 1.009372
v -1.292173 0.036631 0.911062
v 0.058382 0.036631 0.645029
v -1.623245 0.036631 1.933711
v 0.023781 0.036631 2.532967
v 1.569999 7.813189 0.020470
v 1.944432 7.047792 0.025583
v 1.386568 7.427659 1.323069
v 1.569444 6.883800 1.522975
v 1.475792 7.680365 0.854234
v 1.735039 6.955133 0.921826
v 1.756618 6.399880 1.408221
v 1.980905 6.228941 0.998594
v 2.212835 6.237824 0.029248
v -1.547495 7.834700 0.671008
v -2.016418 3.542183 0.881530
v -2.430786 3.581982 1.013405
v -1.958559 6.986672 -0.027716
v -2.118027 4.763148 1.890554
v -1.703804 6.936765 0.760651
v -2.109352 5.946430 1.853513
v -1.708926 3.585429 1.546243
v -1.703658 4.723349 1.758678
v -1.694984 5.906631 1.721638
v -2.016418 3.542183 0.881530
v -2.320502 3.544299 -0.032659
v -1.703658 4.723349 1.758678
v -1.708926 3.585429 1.546243
v -1.958559 6.986672 -0.027716
v -1.703658 4.723349 1.758678
v -1.594885 6.696530 1.291090
v -1.703804 6.936765 0.760651
v -1.712333 3.540066 1.795718
v -2.732993 3.584098 -0.038292
v -2.385664 5.970139 0.976863
v -2.660098 5.993847 -0.037296
v -2.371049 7.026472 -0.033349
v -2.696546 4.788973 -0.037794
v -1.971194 6.772802 1.426111
v -2.173764 6.922318 0.889873
v -2.408225 4.776060 0.995134
v -1.703658 4.723349 1.758678
v -1.708926 3.585429 1.546243
v 0.896042 7.425600 1.319092
v 1.280313 1.485583 0.949059
v 1.135201 6.714363 1.580520
v -1.287360 1.485583 0.845943
v -1.712333 3.540066 1.795718
v 1.663774 3.517490 1.841823
v 1.673290 5.857968 0.894758
v -1.515361 1.396068 -0.021664
v 1.693360 2.046575 1.767910
v 1.012726 7.756077 0.705970
v -0.292336 7.974538 1.666476
v 1.130480 7.929778 0.014468
v 0.063004 1.396067 0.593848
v 1.657588 1.396067 0.021666
v -1.616440 2.049397 1.722711
v 1.379978 6.081515 1.430450
v 2.321644 3.513258 0.030734
v -2.320502 3.544299 -0.032659
v -0.033165 3.528779 2.469426
v -0.272818 8.465622 -0.004696
v -0.170592 5.911817 2.367121
v 1.971152 5.869585 0.025948
v 2.339540 2.037220 0.030979
v -2.214949 2.041100 -0.031217
v 0.029931 2.039160 2.369859
v 1.686569 0.036631 1.977868
v 1.275567 0.036631 1.009372
v 0.058382 0.036631 0.645029
v 0.023781 0.036631 2.532967
v 1.569999 7.813189 0.020470
v 1.944432 7.047792 0.025583
v 1.386568 7.427659 1.323069
v 1.569444 6.883800 1.522975
v 1.475792 7.680365 0.854234
v 1.735039 6.955133 0.921826
v 1.756618 6.399880 1.408221
v 1.980905 6.228941 0.998594
v 2.212835 6.237824 0.029248
v -2.016418 3.542183 0.881530
v -2.430786 3.581982 1.013405
v -2.016418 3.542183 0.881530
v -2.320502 3.544299 -0.032659
v -2.732993 3.584098 -0.038292
v 0.931755 7.425600 -1.296072
v 1.305779 1.485583 -0.915683
v -1.590625 6.706349 -1.587518
v 1.177963 6.714363 -1.550871
v -1.387627 7.650102 -1.406140
v -1.263754 1.485583 -0.882722
v -1.662632 3.540066 -1.843747
v 1.713475 3.517490 -1.797643
v 1.697126 5.857968 -0.850671
v -1.647312 5.906631 -1.769221
v 1.741031 2.046575 -1.722950
v 1.031652 7.756077 -0.679992
v -0.246694 7.974538 -1.675777
v 0.079223 1.396067 -0.593846
v -1.568769 2.049397 -1.768148
v 1.418551 6.081515 -1.394174
v -1.654972 4.723349 -1.806484
v 0.034307 3.528779 -2.471351
v -0.105863 5.911817 -2.372837
v -2.076652 3.625228 -1.737413
v 0.094660 2.039160 -2.370098
v 1.739977 0.036631 -1.933015
v 1.302680 0.036631 -0.976103
v -1.266786 0.036631 -0.947947
v 0.076000 0.036631 -0.645135
v -1.569809 0.036631 -1.979255
v 0.092966 0.036631 -2.533313
v 1.422206 7.427659 -1.286653
v 1.610473 6.883800 -1.481490
v 1.498595 7.680365 -0.815556
v 1.759591 6.955133 -0.876043
v 1.794444 6.399880 -1.361668
v 2.007461 6.228941 -0.946069
v -1.528569 7.834700 -0.714955
v -1.991567 3.542183 -0.938203
v -2.402180 3.581982 -1.081344
v -2.065585 4.763148 -1.949625
v -1.682371 6.936765 -0.808833
v -2.057925 5.946430 -1.912362
v -1.666039 3.585429 -1.594272
v -1.654972 4.723349 -1.806484
v -1.647312 5.906631 -1.769221
v -1.991567 3.542183 -0.938203
v -1.654972 4.723349 -1.806484
v -1.666039 3.585429 -1.594272
v -1.654972 4.723349 -1.806484
v -1.559008 6.696530 -1.336099
v -1.682371 6.936765 -0.808833
v -1.662632 3.540066 -1.843747
v -2.358073 5.970139 -1.043583
v -1.931489 6.772802 -1.481346
v -2.148627 6.922318 -0.950840
v -2.380126 4.776060 -1.062464
v -1.654972 4.723349 -1.806484
v -1.666039 3.585429 -1.594272
v 0.931755 7.425600 -1.296072
v 1.305779 1.485583 -0.915683
v 1.177963 6.714363 -1.550871
v -1.263754 1.485583 -0.882722
v -1.662632 3.540066 -1.843747
v 1.713475 3.517490 -1.797643
v 1.697126 5.857968 -0.850671
v 1.741031 2.046575 -1.722950
v 1.031652 7.756077 -0.679992
v -0.246694 7.974538 -1.675777
v 0.079223 1.396067 -0.593846
v -1.568769 2.049397 -1.768148
v 1.418551 6.081515 -1.394174
v 0.034307 3.528779 -2.471351
v -0.105863 5.911817 -2.372837
v 0.094660 2.039160 -2.370098
v 1.739977 0.036631 -1.933015
v 1.302680 0.036631 -0.976103
v 0.076000 0.036631 -0.645135
v 0.092966 0.036631 -2.533313
v 1.422206 7.427659 -1.286653
v 1.610473 6.883800 -1.481490
v 1.498595 7.680365 -0.815556
v 1.759591 6.955133 -0.876043
v 1.794444 6.399880 -1.361668
v 2.007461 6.228941 -0.946069
v -1.991567 3.542183 -0.938203
v -2.402180 3.581982 -1.081344
v -1.991567 3.542183 -0.938203
vt 0.307776 0.679823
vt 0.307776 0.679823
vt 0.307776 0.679823
vt 0.307776 0.679823
vt 0.307776 0.679823
vt 0.307776 0.679823
vt 0.307776 0.679823
vt 0.307776 0.679823
vt 0.307776 0.679823
vt 0.307776 0.679823
vt 0.307776 0.679823
vt 0.307776 0.679823
vt 0.307776 0.679823
vt 0.307776 0.679823
vt 0.307776 0.679823
vt 0.307776 0.679823
vt 0.307776 0.679823
vt 0.307776 0.679823
vt 0.307776 0.679823
vt 0.307776 0.679823
vt 0.307776 0.679823
vt 0.723228 0.710827
vt 0.723228 0.710827
vt 0.723228 0.710827
vt 0.723228 0.710827
vt 0.307776 0.679823
vt 0.307776 0.679823
vt 0.307776 0.679823
vt 0.307776 0.679823
vt 0.307776 0.679823
vt 0.307776 0.679823
vt 0.723228 0.710827
vt 0.723228 0.710827
vt 0.723228 0.710827
vt 0.723228 0.710827
vt 0.307776 0.679823
vt 0.307776 0.679823
vt 0.307776 0.679823
vt 0.307776 0.679823
vt 0.307776 0.679823
vt 0.307776 0.679823
vt 0.307776 0.679823
vt 0.307776 0.679823
vt 0.307776 0.679823
vt 0.723228 0.710827
vt 0.723228 0.710827
vt 0.723228 0.710827
vt 0.723228 0.710827
vt 0.307776 0.679823
vt 0.307776 0.679823
vt 0.307776 0.679823
vt 0.307776 0.679823
vt 0.307776 0.679823
vt 0.307776 0.679823
vt 0.307776 0.679823
vt 0.723228 0.710827
vt 0.723228 0.710827
vt 0.723228 0.710827
vt 0.723228 0.710827
vt 0.307776 0.679823
vt 0.307776 0.679823
vt 0.307776 0.679823
vt 0.307776 0.679823
vt 0.307776 0.679823
vt 0.307776 0.679823
vt 0.307776 0.679823
vt 0.307776 0.679823
vt 0.307776 0.679823
vt 0.307776 0.679823
vt 0.307776 0.679823
vt 0.307776 0.679823
vt 0.307776 0.679823
vt 0.307776 0.679823
vt 0.307776 0.679823
vt 0.307776 0.679823
vt 0.307776 0.679823
vt 0.307776 0.679823
vt 0.307776 0.679823
vt 0.307776 0.679823
vt 0.307776 0.679823
vt 0.307776 0.679823
vt 0.307776 0.679823
vt 0.307776 0.679823
vt 0.307776 0.679823
vt 0.307776 0.679823
vt 0.307776 0.679823
vt 0.307776 0.679823
vt 0.307776 0.679823
vt 0.307776 0.679823
vt 0.307776 0.679823
vt 0.307776 0.679823
vt 0.307776 0.679823
vt 0.307776 0.679823
vt 0.723228 0.710827
vt 0.723228 0.710827
vt 0.723228 0.710827
vt 0.723228 0.710827
vt 0.723228 0.710827
vt 0.723228 0.710827
vt 0.723228 0.710827
vt 0.723228 0.710827
vt 0.307776 0.679823
vt 0.307776 0.679823
vt 0.307776 0.679823
vt 0.307776 0.679823
vt 0.307776 0.679823
vt 0.307776 0.679823
vt 0.307776 0.679823
vt 0.307776 0.679823
vt 0.307776 0.679823
vt 0.307776 0.679823
vt 0.307776 0.679823
vt 0.307776 0.679823
vt 0.307776 0.679823
vt 0.307776 0.679823
vt 0.723228 0.710827
vt 0.723228 0.710827
vt 0.723228 0.710827
vt 0.723228 0.710827
vt 0.307776 0.679823
vt 0.307776 0.679823
vt 0.307776 0.679823
vt 0.307776 0.679823
vt 0.307776 0.679823
vt 0.307776 0.679823
vt 0.723228 0.710827
vt 0.723228 0.710827
vt 0.723228 0.710827
vt 0.723228 0.710827
vt 0.307776 0.679823
vt 0.307776 0.679823
vt 0.307776 0.679823
vt 0.307776 0.679823
vt 0.307776 0.679823
vt 0.307776 0.679823
vt 0.307776 0.679823
vt 0.307776 0.679823
vt 0.307776 0.679823
vt 0.307776 0.679823
vt 0.307776 0.679823
vt 0.307776 0.679823
vt 0.307776 0.679823
vt 0.307776 0.679823
vt 0.307776 0.679823
vt 0.307776 0.679823
vt 0.307776 0.679823
vt 0.307776 0.679823
vt 0.307776 0.679823
vt 0.307776 0.679823
vt 0.307776 0.679823
vt 0.723228 0.710827
vt 0.723228 0.710827
vt 0.723228 0.710827
vt 0.723228 0.710827
vt 0.307776 0.679823
vt 0.307776 0.679823
vt 0.307776 0.679823
vt 0.723228 0.710827
vt 0.723228 0.710827
vt 0.307776 0.679823
vt 0.307776 0.679823
vt 0.307776 0.679823
vt 0.307776 0.679823
vt 0.723228 0.710827
vt 0.723228 0.710827
vt 0.723228 0.710827
vt 0.723228 0.710827
vt 0.307776 0.679823
vt 0.307776 0.679823
vt 0.307776 0.679823
vt 0.307776 0.679823
vt 0.307776 0.679823
vt 0.307776 0.679823
vt 0.307776 0.679823
vt 0.723228 0.710827
vt 0.307776 0.679823
vt 0.307776 0.679823
vt 0.307776 0.679823
vt 0.307776 0.679823
vt 0.307776 0.679823
vt 0.307776 0.679823
vt 0.307776 0.679823
vt 0.307776 0.679823
vt 0.307776 0.679823
vt 0.307776 0.679823
vt 0.307776 0.679823
vt 0.307776 0.679823
vt 0.307776 0.679823
vt 0.307776 0.679823
vt 0.307776 0.679823
vt 0.307776 0.679823
vt 0.307776 0.679823
vt 0.307776 0.679823
vt 0.307776 0.679823
vt 0.307776 0.679823
vt 0.307776 0.679823
vt 0.307776 0.679823
vt 0.307776 0.679823
vt 0.307776 0.679823
vt 0.307776 0.679823
vt 0.307776 0.679823
vt 0.723228 0.710827
vt 0.723228 0.710827
vt 0.723228 0.710827
vt 0.723228 0.710827
vt 0.723228 0.710827
vt 0.723228 0.710827
vt 0.307776 0.679823
vt 0.307776 0.679823
vt 0.307776 0.679823
vt 0.307776 0.679823
vt 0.307776 0.679823
vt 0.307776 0.679823
vt 0.307776 0.679823
vt 0.723228 0.710827
vt 0.723228 0.710827
vt 0.723228 0.710827
vt 0.723228 0.710827
vt 0.307776 0.679823
vt 0.307776 0.679823
vt 0.307776 0.679823
vt 0.307776 0.679823
vt 0.307776 0.679823
vt 0.307776 0.679823
vt 0.723228 0.710827
vt 0.307776 0.679823
vt 0.307776 0.679823
vn -0.3119 0.9085 0.2782
vn 0.3764 0.8693 0.3203
vn 0.4252 0.1292 0.8958
vn 0.4001 0.2709 0.8755
vn -0.3505 0.2624 0.8991
vn -0.3806 0.0247 0.9244
vn 0.0000 0.0000 1.0000
vn -0.9346 0.2277 0.2734
vn 0.5538 -0.6160 0.5603
vn 0.0704 -0.9780 0.1962
vn -0.0768 -0.9774 0.1971
vn 0.1679 0.9617 0.2166
vn 0.9259 0.1414 0.3503
vn 0.9386 0.0065 0.3450
vn 0.6155 -0.7426 0.2640
vn -0.6520 -0.7217 0.2325
vn -0.9452 -0.0712 0.3185
vn 0.1895 -0.1565 0.9693
vn -0.0091 0.3423 0.9395
vn 0.2845 -0.0390 -0.9579
vn 0.3432 -0.0442 0.9382
vn -0.3686 -0.0733 0.9267
vn 0.3271 0.0864 0.9410
vn 0.0000 -1.0000 0.0000
vn -0.9464 -0.0225 -0.3222
vn 0.9117 -0.0350 -0.4093
vn -0.1895 -0.0400 -0.9811
vn -0.3523 0.0879 0.9317
vn 0.8964 0.3912 0.2083
vn 0.8717 0.3711 0.3200
vn 0.9181 0.3196 0.2346
vn 0.8966 0.3110 0.3152
vn -0.0075 0.8808 0.4733
vn 0.7687 -0.6024 0.2149
vn -0.8038 -0.5863 -0.1005
vn -0.9873 0.0416 -0.1533
vn -0.9585 0.2163 0.1858
vn -0.4548 0.8773 0.1533
vn 0.1614 0.9412 0.2968
vn -0.0652 -0.9934 0.0948
vn 0.2830 -0.1773 0.9426
vn 0.0397 0.9961 0.0792
vn 0.3453 0.3998 0.8491
vn -0.0918 -0.9954 0.0262
vn -0.9638 0.0257 0.2654
vn -0.9377 0.2469 0.2446
vn -0.8998 0.2751 0.3387
vn -0.9618 0.0257 0.2726
vn -0.9335 -0.0187 0.3580
vn -0.9522 0.0196 0.3048
vn 0.3056 0.0276 0.9518
vn -0.9999 0.0069 -0.0124
vn -0.3042 0.9085 -0.2866
vn 0.3850 0.8693 -0.3099
vn 0.4495 0.1292 -0.8839
vn 0.4238 0.2709 -0.8643
vn -0.3258 0.2624 -0.9083
vn -0.3552 0.0247 -0.9345
vn -0.9267 0.2277 -0.2988
vn 0.5689 -0.6160 -0.5449
vn 0.0757 -0.9780 -0.1942
vn -0.0714 -0.9774 -0.1991
vn 0.1737 0.9617 -0.2119
vn 0.9351 0.1414 -0.3249
vn 0.9477 0.0065 -0.3192
vn 0.6225 -0.7426 -0.2471
vn -0.6455 -0.7217 -0.2502
vn -0.9362 -0.0712 -0.3442
vn 0.2159 -0.1565 -0.9638
vn 0.0166 0.3423 -0.9394
vn 0.2583 -0.0390 0.9653
vn 0.3687 -0.0442 -0.9285
vn -0.3431 -0.0733 -0.9364
vn 0.3527 0.0864 -0.9317
vn -0.9548 -0.0225 0.2963
vn 0.9002 -0.0350 0.4341
vn -0.2162 -0.0400 0.9755
vn -0.3268 0.0879 -0.9410
vn 0.9018 0.3912 -0.1837
vn 0.8801 0.3711 -0.2961
vn 0.9241 0.3196 -0.2094
vn 0.9049 0.3110 -0.2906
vn 0.0054 0.8808 -0.4734
vn 0.7743 -0.6024 -0.1938
vn -0.8063 -0.5863 0.0785
vn -0.9911 0.0416 0.1263
vn -0.9530 0.2163 -0.2119
vn -0.4504 0.8773 -0.1657
vn 0.1695 0.9412 -0.2922
vn -0.0626 -0.9934 -0.0966
vn 0.3086 -0.1773 -0.9345
vn 0.0419 0.9961 -0.0781
vn 0.3684 0.3998 -0.8393
vn -0.0911 -0.9954 -0.0287
vn -0.9562 0.0257 -0.2916
vn -0.9306 0.2469 -0.2701
vn -0.8902 0.2751 -0.3631
vn -0.9540 0.0257 -0.2988
vn -0.9234 -0.0187 -0.3834
vn -0.9435 0.0196 -0.3307
vn 0.3314 0.0276 -0.9431
vn -0.9999 0.0069 -0.0149
usemtl Material
s off
f 25/1/1 17/2/1 48/3/1 5/4/1 14/5/1
f 15/6/2 25/1/2 14/5/2 1/7/2 13/8/2
f 8/9/3 20/10/3 26/11/3 24/12/3
f 20/10/4 4/13/4 1/7/4 14/5/4 26/11/4
f 26/11/5 14/5/5 5/4/5 3/14/5 11/15/5
f 24/12/6 26/11/6 11/15/6 21/16/6 7/17/6
f 21/16/7 11/15/7 57/18/7 56/19/7
f 53/20/8 48/3/8 17/2/8 51/21/8
f 20/22/9 9/23/9 46/24/9 45/25/9
f 28/26/10 18/27/10 2/28/10 16/29/10
f 10/30/11 28/26/11 16/29/11 6/31/11
f 15/32/12 13/33/12 43/34/12 39/35/12
f 22/36/13 29/37/13 9/38/13 20/10/13 8/9/13
f 30/39/14 22/36/14 8/9/14 12/40/14
f 18/27/15 30/39/15 12/40/15 2/28/15
f 6/31/16 19/41/16 31/42/16 10/30/16
f 19/41/17 7/17/17 49/43/17 23/44/17 31/42/17
f 4/45/18 20/22/18 45/25/18 42/46/18
f 1/47/19 4/45/19 42/46/19 41/48/19
f 16/29/20 2/28/20 34/49/20 36/50/20
f 12/40/21 8/9/21 24/12/21 32/51/21
f 32/51/22 24/12/22 7/17/22 19/41/22
f 12/40/23 32/51/23 38/52/23 33/53/23
f 34/49/24 33/53/24 38/52/24 36/50/24
f 36/50/24 38/52/24 37/54/24 35/55/24
f 19/41/25 6/31/25 35/55/25 37/54/25
f 2/28/26 12/40/26 33/53/26 34/49/26
f 6/31/27 16/29/27 36/50/27 35/55/27
f 32/51/28 19/41/28 37/54/28 38/52/28
f 40/56/29 39/35/29 43/34/29 44/57/29
f 44/57/30 43/34/30 41/48/30 42/46/30
f 47/58/31 40/56/31 44/57/31 46/24/31
f 46/24/32 44/57/32 42/46/32 45/25/32
f 13/33/33 1/47/33 41/48/33 43/34/33
f 9/23/34 29/59/34 47/58/34 46/24/34
f 3/14/35 53/20/35 65/60/35 64/61/35
f 11/15/36 3/14/36 64/61/36 57/18/36
f 3/14/37 5/4/37 48/3/37 53/20/37
f 23/44/7 49/43/7 58/62/7 59/63/7
f 53/20/7 51/21/7 62/64/7 65/60/7
f 49/43/38 7/17/38 55/65/38 58/62/38
f 64/61/39 65/60/39 73/66/39 72/67/39
f 58/62/40 55/65/40 27/68/40 50/69/40
f 55/65/41 56/19/41 52/70/41 27/68/41
f 65/60/42 62/64/42 70/71/42 73/66/42
f 57/18/43 64/61/43 72/67/43 54/72/43
f 59/63/44 58/62/44 50/69/44 67/73/44
f 56/19/7 55/65/7 76/74/7 75/75/7
f 74/76/45 68/77/45 69/78/45 71/79/45
f 68/77/46 73/66/46 70/71/46 69/78/46
f 54/72/47 72/67/47 73/66/47 68/77/47
f 50/69/48 74/76/48 71/79/48 67/73/48
f 27/68/49 52/70/49 74/76/49 50/69/49
f 52/70/50 54/72/50 68/77/50 74/76/50
f 56/19/51 57/18/51 54/72/51 52/70/51
f 56/19/7 55/65/7 61/80/7 63/81/7
f 66/82/52 60/83/52 75/75/52 76/74/52
f 7/17/7 21/16/7 60/83/7 66/82/7
f 55/65/7 7/17/7 66/82/7 76/74/7
f 21/16/7 56/19/7 75/75/7 60/83/7
f 88/84/2 96/85/2 87/86/2 77/87/2 86/88/2
f 82/89/3 92/90/3 97/91/3 95/92/3
f 92/90/4 79/93/4 77/87/4 87/86/4 97/91/4
f 92/94/9 83/95/9 113/96/9 112/97/9
f 88/98/12 86/99/12 110/100/12 106/101/12
f 93/102/13 98/103/13 83/104/13 92/90/13 82/89/13
f 99/105/14 93/102/14 82/89/14 85/106/14
f 90/107/15 99/105/15 85/106/15 78/108/15
f 80/109/16 91/110/16 100/111/16 84/112/16
f 91/110/17 81/113/17 115/114/17 94/115/17 100/111/17
f 79/116/18 92/94/18 112/97/18 109/117/18
f 77/118/19 79/116/19 109/117/19 108/119/19
f 89/120/20 78/108/20 103/121/20 104/122/20
f 85/106/21 82/89/21 95/92/21 101/123/21
f 101/123/22 95/92/22 81/113/22 91/110/22
f 85/106/23 101/123/23 105/124/23 102/125/23
f 103/121/24 102/125/24 105/124/24 104/122/24
f 78/108/26 85/106/26 102/125/26 103/121/26
f 107/126/29 106/101/29 110/100/29 111/127/29
f 111/127/30 110/100/30 108/119/30 109/117/30
f 114/128/31 107/126/31 111/127/31 113/96/31
f 113/96/32 111/127/32 109/117/32 112/97/32
f 86/99/33 77/118/33 108/119/33 110/100/33
f 83/95/34 98/129/34 114/128/34 113/96/34
f 118/130/44 117/131/44 116/132/44 119/133/44
f 25/1/53 132/134/53 124/135/53 153/136/53 17/2/53
f 15/6/54 131/137/54 120/138/54 132/134/54 25/1/54
f 127/139/55 137/140/55 138/141/55 135/142/55
f 135/142/56 138/141/56 132/134/56 120/138/56 123/143/56
f 138/141/57 129/144/57 122/145/57 124/135/57 132/134/57
f 137/140/58 126/146/58 136/147/58 129/144/58 138/141/58
f 136/147/7 160/148/7 161/149/7 129/144/7
f 157/150/59 51/21/59 17/2/59 153/136/59
f 135/151/60 151/152/60 152/153/60 128/154/60
f 28/26/61 133/155/61 121/156/61 18/27/61
f 10/30/62 125/157/62 133/155/62 28/26/62
f 15/32/63 39/35/63 149/158/63 131/159/63
f 22/36/64 127/139/64 135/142/64 128/160/64 29/37/64
f 30/39/65 130/161/65 127/139/65 22/36/65
f 18/27/66 121/156/66 130/161/66 30/39/66
f 125/157/67 10/30/67 31/42/67 134/162/67
f 134/162/68 31/42/68 23/44/68 154/163/68 126/146/68
f 123/164/69 148/165/69 151/152/69 135/151/69
f 120/166/70 147/167/70 148/165/70 123/164/70
f 133/155/71 144/168/71 142/169/71 121/156/71
f 130/161/72 140/170/72 137/140/72 127/139/72
f 140/170/73 134/162/73 126/146/73 137/140/73
f 130/161/74 141/171/74 146/172/74 140/170/74
f 142/169/24 144/168/24 146/172/24 141/171/24
f 144/168/24 143/173/24 145/174/24 146/172/24
f 134/162/75 145/174/75 143/173/75 125/157/75
f 121/156/76 142/169/76 141/171/76 130/161/76
f 125/157/77 143/173/77 144/168/77 133/155/77
f 140/170/78 146/172/78 145/174/78 134/162/78
f 40/56/79 150/175/79 149/158/79 39/35/79
f 150/175/80 148/165/80 147/167/80 149/158/80
f 47/58/81 152/153/81 150/175/81 40/56/81
f 152/153/82 151/152/82 148/165/82 150/175/82
f 131/159/83 149/158/83 147/167/83 120/166/83
f 128/154/84 152/153/84 47/58/84 29/59/84
f 122/145/85 166/176/85 167/177/85 157/150/85
f 129/144/86 161/149/86 166/176/86 122/145/86
f 122/145/87 157/150/87 153/136/87 124/135/87
f 23/44/7 59/63/7 162/178/7 154/163/7
f 157/150/7 167/177/7 62/64/7 51/21/7
f 154/163/88 162/178/88 159/179/88 126/146/88
f 166/176/89 170/180/89 171/181/89 167/177/89
f 162/178/90 155/182/90 139/183/90 159/179/90
f 159/179/91 139/183/91 156/184/91 160/148/91
f 167/177/92 171/181/92 70/71/92 62/64/92
f 161/149/93 158/185/93 170/180/93 166/176/93
f 59/63/94 67/73/94 155/182/94 162/178/94
f 160/148/7 173/186/7 174/187/7 159/179/7
f 172/188/95 71/79/95 69/78/95 169/189/95
f 169/189/96 69/78/96 70/71/96 171/181/96
f 158/185/97 169/189/97 171/181/97 170/180/97
f 155/182/98 67/73/98 71/79/98 172/188/98
f 139/183/99 155/182/99 172/188/99 156/184/99
f 156/184/100 172/188/100 169/189/100 158/185/100
f 160/148/101 156/184/101 158/185/101 161/149/101
f 160/148/7 165/190/7 164/191/7 159/179/7
f 168/192/102 174/187/102 173/186/102 163/193/102
f 126/146/7 168/192/7 163/193/7 136/147/7
f 159/179/7 174/187/7 168/192/7 126/146/7
f 136/147/7 163/193/7 173/186/7 160/148/7
f 88/84/54 183/194/54 175/195/54 184/196/54 96/85/54
f 180/197/55 188/198/55 189/199/55 187/200/55
f 187/200/56 189/199/56 184/196/56 175/195/56 177/201/56
f 187/202/60 199/203/60 200/204/60 181/205/60
f 88/98/63 106/101/63 197/206/63 183/207/63
f 93/102/64 180/197/64 187/200/64 181/208/64 98/103/64
f 99/105/65 182/209/65 180/197/65 93/102/65
f 90/107/66 176/210/66 182/209/66 99/105/66
f 178/211/67 84/112/67 100/111/67 186/212/67
f 186/212/68 100/111/68 94/115/68 201/213/68 179/214/68
f 177/215/69 196/216/69 199/203/69 187/202/69
f 175/217/70 195/218/70 196/216/70 177/215/70
f 185/219/71 193/220/71 192/221/71 176/210/71
f 182/209/72 190/222/72 188/198/72 180/197/72
f 190/222/73 186/212/73 179/214/73 188/198/73
f 182/209/74 191/223/74 194/224/74 190/222/74
f 192/221/24 193/220/24 194/224/24 191/223/24
f 176/210/76 192/221/76 191/223/76 182/209/76
f 107/126/79 198/225/79 197/206/79 106/101/79
f 198/225/80 196/216/80 195/218/80 197/206/80
f 114/128/81 200/204/81 198/225/81 107/126/81
f 200/204/82 199/203/82 196/216/82 198/225/82
f 183/207/83 197/206/83 195/218/83 175/217/83
f 181/205/84 200/204/84 114/128/84 98/129/84
f 118/130/94 119/133/94 202/226/94 203/227/94
